HIERARCHY
ROOT Hips
{
	OFFSET	0.00	0.00	0.00
	CHANNELS 6 Xposition Yposition Zposition Zrotation Xrotation Yrotation
	JOINT LeftUpLeg
	{
		OFFSET	 0.126116	-0.014019	-0.065224
		CHANNELS 3 Zrotation Xrotation Yrotation
		JOINT LeftLeg
		{
			OFFSET	 0.000000	 0.000000	 0.569914
			CHANNELS 3 Zrotation Xrotation Yrotation
			JOINT LeftFoot
			{
				OFFSET	 0.000000	 0.000000	 0.544423
				CHANNELS 3 Zrotation Xrotation Yrotation
				JOINT LeftToeBase
				{
					OFFSET	 0.000000	 0.000000	 0.207117
					CHANNELS 3 Zrotation Xrotation Yrotation
					End Site
					{
						OFFSET	 0.000000	 0.000000	 0.207117
					}
				}
			}
		}
	}
	JOINT RightUpLeg
	{
		OFFSET	-0.124023	-0.008373	-0.065224
		CHANNELS 3 Zrotation Xrotation Yrotation
		JOINT RightLeg
		{
			OFFSET	 0.000000	 0.000000	 0.570047
			CHANNELS 3 Zrotation Xrotation Yrotation
			JOINT RightFoot
			{
				OFFSET	 0.000000	 0.000000	 0.544354
				CHANNELS 3 Zrotation Xrotation Yrotation
				JOINT RightToeBase
				{
					OFFSET	 0.000000	 0.000000	 0.207540
					CHANNELS 3 Zrotation Xrotation Yrotation
					End Site
					{
						OFFSET	 0.000000	 0.000000	 0.207540
					}
				}
			}
		}
	}
	JOINT Spine
	{
		OFFSET	 0.000184	-0.007763	 0.117403
		CHANNELS 3 Zrotation Xrotation Yrotation
		JOINT Spine1
		{
			OFFSET	 0.000000	 0.000000	 0.137269
			CHANNELS 3 Zrotation Xrotation Yrotation
			JOINT Spine2
			{
				OFFSET	 0.000000	 0.000000	 0.156879
				CHANNELS 3 Zrotation Xrotation Yrotation
				JOINT LeftShoulder
				{
					OFFSET	 0.080501	-0.002496	 0.160144
					CHANNELS 3 Zrotation Xrotation Yrotation
					JOINT LeftArm
					{
						OFFSET	 0.000000	 0.000000	 0.164363
						CHANNELS 3 Zrotation Xrotation Yrotation
						JOINT LeftForeArm
						{
							OFFSET	 0.000000	 0.000000	 0.364576
							CHANNELS 3 Zrotation Xrotation Yrotation
							JOINT LeftHand
							{
								OFFSET	 0.000000	 0.000000	 0.360812
								CHANNELS 3 Zrotation Xrotation Yrotation
								JOINT LeftHandIndex1
								{
									OFFSET	 0.000000	 0.000000	 0.086006
									CHANNELS 3 Zrotation Xrotation Yrotation
									JOINT LeftHandIndex2
									{
										OFFSET	 0.000000	 0.000000	 0.047237
										CHANNELS 3 Zrotation Xrotation Yrotation
										JOINT LeftHandIndex3
										{
											OFFSET	-0.004284	-0.000551	 0.038165
											CHANNELS 3 Zrotation Xrotation Yrotation
											End Site
											{
												OFFSET	-0.004284	-0.000551	 0.038165
											}
										}
									}
								}
							}
						}
					}
				}
				JOINT Neck
				{
					OFFSET	 0.000000	 0.000000	 0.176489
					CHANNELS 3 Zrotation Xrotation Yrotation
					JOINT Head
					{
						OFFSET	 0.000000	-0.001747	 0.077940
						CHANNELS 3 Zrotation Xrotation Yrotation
						End Site
						{
							OFFSET	 0.000000	-0.001747	 0.077940
						}
					}
				}
				JOINT RightShoulder
				{
					OFFSET	-0.080363	 0.000306	 0.159706
					CHANNELS 3 Zrotation Xrotation Yrotation
					JOINT RightArm
					{
						OFFSET	 0.000000	 0.000000	 0.164196
						CHANNELS 3 Zrotation Xrotation Yrotation
						JOINT RightForeArm
						{
							OFFSET	 0.000000	 0.000000	 0.365611
							CHANNELS 3 Zrotation Xrotation Yrotation
							JOINT RightHand
							{
								OFFSET	 0.000000	 0.000000	 0.360648
								CHANNELS 3 Zrotation Xrotation Yrotation
								JOINT RightHandIndex1
								{
									OFFSET	 0.000000	 0.000000	 0.069977
									CHANNELS 3 Zrotation Xrotation Yrotation
									JOINT RightHandIndex2
									{
										OFFSET	 0.000000	 0.000000	 0.052305
										CHANNELS 3 Zrotation Xrotation Yrotation
										JOINT RightHandIndex3
										{
											OFFSET	 0.009002	-0.000782	 0.042196
											CHANNELS 3 Zrotation Xrotation Yrotation
											End Site
											{
												OFFSET	 0.009002	-0.000782	 0.042196
											}
										}
									}
								}
							}
						}
					}
				}
			}
		}
	}
}
MOTION
Frames:    8
Frame Time: 0.03333334
-0.643895	-0.125091	 1.248959	-161.372100	 9.895815	 10.123330	 1.087735	-14.934520	 163.408100	-9.070285	-32.197920	-3.806902	-88.031940	 80.115360	 83.824440	-2.385833	 28.452760	 0.000004	 21.679780	-51.819540	-175.175100	-28.139630	-58.743920	-14.856410	 34.146350	 39.146110	-42.492750	 2.384659	 28.388700	-0.000001	 21.517190	-21.793840	-15.963740	 45.038670	 27.211980	 4.924544	-0.485336	-4.259819	-9.584540	-91.776120	 78.527360	 180.000000	 18.504130	 47.956890	-43.716340	-5.717083	-0.080065	-0.487162	 7.991034	-3.151986	-4.241627	-4.131196	 21.524690	 0.986298	-5.167839	 0.733520	 3.519257	-1.378229	 35.397820	-2.634230	-14.009750	 16.434360	-7.811378	-24.068740	 3.775991	 5.264759	 89.782140	 78.203900	 180.000000	 4.952685	 58.088390	 0.848710	-4.610184	-0.143317	 0.456349	 87.082280	-10.941240	 0.051255	 5.715225	 19.176060	-3.692089	 5.027514	 0.245388	-9.378011	-2.350882	 35.473990	 5.254307
-0.643687	-0.124432	 1.249225	-161.602200	 9.730732	 10.193450	 1.682584	-14.777980	 163.349300	-8.932190	-32.078600	-3.720186	-93.735160	 80.821890	 89.151290	-2.385833	 28.452760	 0.000004	 21.947800	-51.620970	-175.230400	-25.799710	-58.971200	-12.843690	 40.244910	 43.253380	-45.534890	 2.384659	 28.388700	-0.000001	 21.304850	-22.363660	-16.607990	 45.377500	 28.583950	 4.469832	-0.555449	-4.857768	-9.401831	-91.776180	 78.527420	 180.000000	 18.623770	 47.918530	-43.802850	-5.432900	-0.082410	-0.486416	 8.288734	-2.962349	-4.350450	-4.131196	 21.524690	 0.986298	-5.167839	 0.733520	 3.519257	-1.378229	 35.397820	-2.634230	-13.980880	 16.354420	-7.880972	-24.095250	 3.692721	 5.136804	 89.782100	 78.203890	 180.000000	 5.114660	 58.092590	 0.722790	-5.076961	-0.146650	 0.453945	 87.013610	-10.252240	 1.276932	 5.715225	 19.176060	-3.692089	 5.027514	 0.245388	-9.378011	-2.350882	 35.473990	 5.254307
-0.643431	-0.123323	 1.249664	-161.755000	 9.464335	 10.030440	 2.692439	-14.485810	 163.524100	-8.766488	-31.767980	-3.599916	-105.121200	 81.581000	 100.116900	-2.385833	 28.452760	 0.000004	 21.367010	-51.299590	-175.427300	-23.248480	-59.185480	-10.648000	 46.242760	 46.809670	-48.906130	 2.384659	 28.388700	-0.000001	 20.983980	-23.108060	-17.210300	 45.858230	 30.525730	 3.587295	-0.666632	-5.741969	-9.017741	-91.776120	 78.527380	 180.000000	 18.615030	 47.917450	-43.797580	-5.081271	-0.085395	-0.486023	 8.540657	-2.818314	-4.454919	-4.131196	 21.524690	 0.986298	-5.167839	 0.733520	 3.519257	-1.378229	 35.397820	-2.634230	-14.011740	 16.244670	-7.759951	-24.096280	 3.646837	 4.925270	 89.782070	 78.203870	-180.000000	 5.321511	 58.140430	 0.599888	-5.688123	-0.151600	 0.452686	 87.107190	-8.899570	 3.065556	 5.715225	 19.176060	-3.692089	 5.027514	 0.245388	-9.378011	-2.350882	 35.473990	 5.254307
-0.642401	-0.122353	 1.249837	-162.335700	 9.530269	 10.118410	 3.868460	-14.639750	 163.471000	-8.388260	-31.626960	-3.385373	-114.079300	 81.621430	 108.595000	-2.385833	 28.452760	 0.000004	 20.111870	-51.505360	-176.083600	-21.070110	-59.124860	-8.752709	 49.698170	 49.406620	-50.512450	 2.384659	 28.388700	-0.000001	 21.377020	-23.249930	-17.488210	 45.886100	 30.854570	 3.945840	-0.669423	-5.789994	-9.117328	-91.776180	 78.527400	 180.000000	 18.538630	 47.880410	-43.765340	-4.670946	-0.089334	-0.487273	 8.819513	-2.659029	-4.575692	-4.131196	 21.524690	 0.986298	-5.167839	 0.733520	 3.519257	-1.378229	 35.397820	-2.634230	-14.019750	 16.318280	-7.701930	-24.070140	 3.527018	 4.761810	 89.782140	 78.203890	 180.000000	 5.521072	 58.251470	 0.520244	-6.425909	-0.157287	 0.450278	 86.456790	-8.761876	 4.364865	 5.715225	 19.176060	-3.692089	 5.027514	 0.245388	-9.378011	-2.350882	 35.473990	 5.254307
-0.640847	-0.121568	 1.249763	-163.156100	 9.820864	 10.399040	 4.969987	-15.087270	 163.247800	-7.870252	-31.634210	-3.112079	-118.791600	 81.286710	 112.784500	-2.385833	 28.452760	 0.000004	 18.811140	-52.005530	-176.923400	-19.558450	-58.863590	-7.425922	 50.502370	 51.085370	-50.206550	 2.384659	 28.388700	-0.000001	 22.258740	-22.912120	-17.505210	 45.562800	 29.950710	 5.200640	-0.590640	-5.211583	-9.564824	-91.776210	 78.527380	-179.999900	 18.382140	 47.845780	-43.694940	-4.278230	-0.092297	-0.484921	 9.071324	-2.511307	-4.688618	-4.131196	 21.524690	 0.986298	-5.167839	 0.733520	 3.519257	-1.378229	 35.397820	-2.634230	-14.008860	 16.522520	-7.702025	-24.027100	 3.368709	 4.661891	 89.782110	 78.203890	 180.000000	 5.668862	 58.394150	 0.505113	-7.145406	-0.163589	 0.450180	 85.337110	-9.577888	 5.025986	 5.715225	 19.176060	-3.692089	 5.027514	 0.245388	-9.378011	-2.350882	 35.473990	 5.254307
-0.638855	-0.119889	 1.249723	-163.770400	 10.163200	 10.196270	 6.036528	-15.318020	 163.534500	-6.998870	-31.347740	-2.630468	-134.473500	 81.031500	 127.432100	-2.385833	 28.452760	 0.000004	 19.531480	-52.123670	-176.246500	-18.543880	-58.601840	-6.534800	 53.807160	 52.708920	-52.291190	 2.384659	 28.388700	-0.000001	 22.999230	-22.958020	-17.030480	 45.419720	 29.689990	 5.845931	-0.518372	-4.948278	-10.011900	-91.776180	 78.527400	-180.000000	 18.328350	 47.838190	-43.763350	-3.884978	-0.095472	-0.483747	 9.349907	-2.331495	-4.819464	-4.131196	 21.524690	 0.986298	-5.167839	 0.733520	 3.519257	-1.378229	 35.397820	-2.634230	-13.928310	 16.797460	-7.769855	-23.964010	 3.299500	 4.887013	 89.782070	 78.203830	-180.000000	 5.562528	 58.447340	 0.827861	-7.898863	-0.168693	 0.445834	 84.176700	-10.021250	 6.074066	 5.715225	 19.176060	-3.692089	 5.027514	 0.245388	-9.378011	-2.350882	 35.473990	 5.254307
-0.637315	-0.118302	 1.249719	-164.025200	 10.406070	 9.815583	 6.679459	-15.325880	 163.971600	-6.302162	-30.992100	-2.243109	-148.778100	 80.421540	 140.906000	-2.385833	 28.452760	 0.000004	 21.006260	-51.972410	-175.034900	-18.190480	-58.439650	-6.221041	 57.214730	 53.547450	-54.883370	 2.384659	 28.388700	-0.000001	 23.370490	-23.203330	-16.480730	 45.424760	 29.893700	 5.894755	-0.482753	-4.963788	-10.270530	-91.776150	 78.527380	 180.000000	 18.337700	 47.854690	-43.869520	-3.647170	-0.097506	-0.483497	 9.530251	-2.208085	-4.907347	-4.131196	 21.524690	 0.986298	-5.167839	 0.733520	 3.519257	-1.378229	 35.397820	-2.634230	-13.842390	 17.000190	-7.847285	-23.915790	 3.306442	 5.195128	 89.782110	 78.203920	 180.000000	 5.350371	 58.433100	 1.217446	-8.370914	-0.172578	 0.445030	 83.474660	-10.117500	 6.925468	 5.715225	 19.176060	-3.692089	 5.027514	 0.245388	-9.378011	-2.350882	 35.473990	 5.254307
-0.635336	-0.115691	 1.249780	-163.938500	 10.556130	 8.862768	 7.327676	-14.895190	 164.954100	-5.478223	-30.230890	-1.777030	-167.651900	 78.872410	 158.861300	-2.385833	 28.452760	 0.000004	 24.060230	-51.170110	-172.500900	-17.996820	-58.344220	-6.049179	 63.387650	 54.098580	-59.977950	 2.384659	 28.388700	-0.000001	 23.523700	-23.745640	-15.418650	 45.617940	 30.871850	 5.055293	-0.464635	-5.436696	-10.286810	-91.776180	 78.527420	-180.000000	 18.387030	 47.901160	-44.032760	-3.398082	-0.099521	-0.482794	 9.744281	-2.052615	-5.014647	-4.131196	 21.524690	 0.986298	-5.167839	 0.733520	 3.519257	-1.378229	 35.397820	-2.634230	-13.669530	 17.133820	-7.993443	-23.870130	 3.457603	 5.835275	 89.782140	 78.203900	 180.000000	 4.960477	 58.368180	 1.851537	-8.770762	-0.176100	 0.444781	 82.952140	-10.027450	 8.456661	 5.715225	 19.176060	-3.692089	 5.027514	 0.245388	-9.378011	-2.350882	 35.473990	 5.254307
